<svg width="30" height="22" viewBox="0 0 30 22" fill="none" xmlns="http://www.w3.org/2000/svg">
<path id="icon-youtube" d="M29.7012 5.00293C29.7012 5.00293 29.4082 2.93457 28.5059 2.02637C27.3633 0.831055 26.0859 0.825195 25.5 0.754883C21.3047 0.450195 15.0059 0.450195 15.0059 0.450195H14.9941C14.9941 0.450195 8.69531 0.450195 4.5 0.754883C3.91406 0.825195 2.63672 0.831055 1.49414 2.02637C0.591797 2.93457 0.304688 5.00293 0.304688 5.00293C0.304688 5.00293 0 7.43457 0 9.86035V12.1338C0 14.5596 0.298828 16.9912 0.298828 16.9912C0.298828 16.9912 0.591797 19.0596 1.48828 19.9678C2.63086 21.1631 4.13086 21.1221 4.79883 21.251C7.20117 21.4795 15 21.5498 15 21.5498C15 21.5498 21.3047 21.5381 25.5 21.2393C26.0859 21.1689 27.3633 21.1631 28.5059 19.9678C29.4082 19.0596 29.7012 16.9912 29.7012 16.9912C29.7012 16.9912 30 14.5654 30 12.1338V9.86035C30 7.43457 29.7012 5.00293 29.7012 5.00293ZM11.9004 14.8936V6.46191L20.0039 10.6924L11.9004 14.8936Z" fill="#0099AD"/>
</svg>
