<svg width="30" height="30" viewBox="0 0 30 30" fill="none" xmlns="http://www.w3.org/2000/svg">
<g id="icon-instagram">
<path id="Vector" d="M15.0088 2.7017C19.019 2.7017 19.4938 2.71928 21.0709 2.78961C22.5366 2.85407 23.3281 3.10022 23.8558 3.30533C24.5534 3.57492 25.0576 3.90311 25.5794 4.42469C26.1071 4.95214 26.4295 5.45028 26.6992 6.14769C26.9044 6.67513 27.1507 7.47216 27.2152 8.93143C27.2855 10.5138 27.3031 10.9885 27.3031 14.9912C27.3031 18.9998 27.2855 19.4745 27.2152 21.051C27.1507 22.5161 26.9044 23.3073 26.6992 23.8347C26.4295 24.5321 26.1012 25.0361 25.5794 25.5577C25.0518 26.0852 24.5534 26.4075 23.8558 26.6771C23.3281 26.8822 22.5308 27.1283 21.0709 27.1928C19.488 27.2631 19.0131 27.2807 15.0088 27.2807C10.9986 27.2807 10.5237 27.2631 8.94665 27.1928C7.48095 27.1283 6.68947 26.8822 6.16181 26.6771C5.46414 26.4075 4.95994 26.0793 4.43815 25.5577C3.91049 25.0303 3.58804 24.5321 3.31835 23.8347C3.11315 23.3073 2.86691 22.5103 2.80242 21.051C2.73207 19.4686 2.71448 18.9939 2.71448 14.9912C2.71448 10.9826 2.73207 10.5079 2.80242 8.93143C2.86691 7.4663 3.11315 6.67513 3.31835 6.14769C3.58804 5.45028 3.91636 4.94628 4.43815 4.42469C4.9658 3.89725 5.46414 3.57492 6.16181 3.30533C6.68947 3.10022 7.48681 2.85407 8.94665 2.78961C10.5237 2.71928 10.9986 2.7017 15.0088 2.7017ZM15.0088 0C10.9341 0 10.4241 0.0175816 8.82353 0.0879078C7.22885 0.158234 6.1325 0.416097 5.18272 0.78531C4.19191 1.1721 3.35353 1.68197 2.52101 2.52002C1.68263 3.35222 1.17256 4.19027 0.785617 5.17484C0.416259 6.1301 0.158296 7.22016 0.0879422 8.81422C0.0175884 10.42 0 10.9299 0 15.0029C0 19.076 0.0175884 19.5859 0.0879422 21.1858C0.158296 22.7798 0.416259 23.8758 0.785617 24.8252C1.17256 25.8156 1.68263 26.6536 2.52101 27.4858C3.35353 28.318 4.19191 28.8338 5.17686 29.2147C6.1325 29.5839 7.22298 29.8418 8.81767 29.9121C10.4182 29.9824 10.9283 30 15.0029 30C19.0776 30 19.5876 29.9824 21.1882 29.9121C22.7829 29.8418 23.8792 29.5839 24.829 29.2147C25.814 28.8338 26.6523 28.318 27.4849 27.4858C28.3174 26.6536 28.8333 25.8156 29.2144 24.831C29.5837 23.8758 29.8417 22.7857 29.9121 21.1916C29.9824 19.5917 30 19.0819 30 15.0088C30 10.9357 29.9824 10.4259 29.9121 8.82594C29.8417 7.23188 29.5837 6.13596 29.2144 5.18656C28.845 4.19027 28.335 3.35222 27.4966 2.52002C26.6641 1.68783 25.8257 1.1721 24.8407 0.79117C23.8851 0.421957 22.7946 0.164095 21.1999 0.0937683C19.5935 0.0175816 19.0834 0 15.0088 0Z" fill="#0099AD"/>
<path id="Vector_2" d="M15.0088 7.2959C10.7524 7.2959 7.29919 10.7477 7.29919 15.0025C7.29919 19.2572 10.7524 22.7091 15.0088 22.7091C19.2652 22.7091 22.7184 19.2572 22.7184 15.0025C22.7184 10.7477 19.2652 7.2959 15.0088 7.2959ZM15.0088 20.0015C12.2474 20.0015 10.0078 17.7628 10.0078 15.0025C10.0078 12.2422 12.2474 10.0035 15.0088 10.0035C17.7702 10.0035 20.0098 12.2422 20.0098 15.0025C20.0098 17.7628 17.7702 20.0015 15.0088 20.0015Z" fill="#0099AD"/>
<path id="Vector_3" d="M24.8232 6.99157C24.8232 7.98786 24.0141 8.79075 23.0233 8.79075C22.0266 8.79075 21.2234 7.982 21.2234 6.99157C21.2234 5.99528 22.0325 5.19238 23.0233 5.19238C24.0141 5.19238 24.8232 6.00114 24.8232 6.99157Z" fill="#0099AD"/>
</g>
</svg>
